<svg width="24" height="24" viewBox="0 0 24 24" fill="none" xmlns="http://www.w3.org/2000/svg">
<path d="M17.8499 16.44C17.9445 16.5339 17.9978 16.6617 17.9978 16.795C17.9978 16.9283 17.9445 17.0561 17.8499 17.15L17.1499 17.85C17.056 17.9446 16.9282 17.9979 16.7949 17.9979C16.6615 17.9979 16.5337 17.9446 16.4399 17.85L11.9999 13.41L7.55985 17.85C7.46597 17.9446 7.33817 17.9979 7.20485 17.9979C7.07153 17.9979 6.94374 17.9446 6.84985 17.85L6.14985 17.15C6.0552 17.0561 6.00195 16.9283 6.00195 16.795C6.00195 16.6617 6.0552 16.5339 6.14985 16.44L10.5899 12L6.14985 7.55997C6.0552 7.46609 6.00195 7.33829 6.00195 7.20497C6.00195 7.07166 6.0552 6.94386 6.14985 6.84997L6.84985 6.14997C6.94374 6.05532 7.07153 6.00208 7.20485 6.00208C7.33817 6.00208 7.46597 6.05532 7.55985 6.14997L11.9999 10.59L16.4399 6.14997C16.5337 6.05532 16.6615 6.00208 16.7949 6.00208C16.9282 6.00208 17.056 6.05532 17.1499 6.14997L17.8499 6.84997C17.9445 6.94386 17.9978 7.07166 17.9978 7.20497C17.9978 7.33829 17.9445 7.46609 17.8499 7.55997L13.4099 12L17.8499 16.44Z" fill="#212121"/>
</svg>
