<svg width="24" height="24" viewBox="0 0 24 24" fill="none" xmlns="http://www.w3.org/2000/svg">
<g clip-path="url(#clip0_1304_415)">
<path d="M16.284 10.2097C16.3652 10.2926 16.4107 10.4041 16.4107 10.5202C16.4107 10.6363 16.3652 10.7477 16.284 10.8307L9.13587 18.0073C8.96439 18.1804 8.7591 18.3163 8.53281 18.4065L4.68384 19.9678C4.60324 20.0002 4.51488 20.0083 4.42973 19.991C4.34459 19.9736 4.26642 19.9316 4.20494 19.8702C4.11609 19.8135 4.05034 19.727 4.01946 19.6262C3.98858 19.5254 3.9946 19.417 4.03643 19.3202L5.56183 15.4702C5.65203 15.2438 5.78789 15.0385 5.96092 14.867L13.1179 7.70806C13.1591 7.66649 13.2081 7.63349 13.2622 7.61097C13.3162 7.58845 13.3742 7.57686 13.4327 7.57686C13.4912 7.57686 13.5492 7.58845 13.6032 7.61097C13.6573 7.63349 13.7063 7.66649 13.7475 7.70806L16.284 10.2097ZM19.6097 4.97579L19.0244 4.3903C18.7751 4.14069 18.437 4.00029 18.0843 3.99998H17.4103C17.2327 3.99778 17.0564 4.03119 16.8919 4.09822C16.7274 4.16526 16.578 4.26457 16.4525 4.3903L14.8472 6.0137C14.766 6.09661 14.7205 6.20808 14.7205 6.32418C14.7205 6.44028 14.766 6.55176 14.8472 6.63467L17.3393 9.1629C17.3805 9.20448 17.4296 9.23747 17.4836 9.25999C17.5377 9.28251 17.5956 9.29411 17.6542 9.29411C17.7127 9.29411 17.7707 9.28251 17.8247 9.25999C17.8787 9.23747 17.9278 9.20448 17.969 9.1629L19.6097 7.54838C19.7354 7.42284 19.8347 7.27338 19.9017 7.10883C19.9687 6.94429 20.0021 6.76798 19.9999 6.59031V5.91612C19.9996 5.56333 19.8592 5.2251 19.6097 4.97579Z" fill="#333333"/>
</g>
<defs>
<clipPath id="clip0_1304_415">
<rect width="24" height="24" fill="white"/>
</clipPath>
</defs>
</svg>
